<svg width="200" height="200" viewBox="0 0 200 200" xmlns="http://www.w3.org/2000/svg">
  <!-- 背景圆 -->
  <circle cx="100" cy="100" r="90" fill="#f3e5f5" />
  
  <!-- 书本形状 -->
  <path d="M60 50 L140 50 L140 150 L60 150 C50 150 45 145 45 135 L45 65 C45 55 50 50 60 50" fill="#8e44ad" />
  
  <!-- 书页 -->
  <path d="M60 50 L140 50 L140 150 L60 150 C60 140 60 60 60 50" fill="#9b59b6" />
  
  <!-- 知识连接线 -->
  <g stroke="#8e44ad" stroke-width="2" fill="none">
    <path d="M80 80 L120 80" />
    <path d="M70 100 L130 100" />
    <path d="M80 120 L120 120" />
  </g>
  
  <!-- 知识节点 -->
  <circle cx="80" cy="80" r="3" fill="#8e44ad" />
  <circle cx="120" cy="80" r="3" fill="#8e44ad" />
  <circle cx="70" cy="100" r="3" fill="#8e44ad" />
  <circle cx="130" cy="100" r="3" fill="#8e44ad" />
  <circle cx="80" cy="120" r="3" fill="#8e44ad" />
  <circle cx="120" cy="120" r="3" fill="#8e44ad" />
</svg>